<svg id="Capa_1" enable-background="new 0 0 512 512" height="512" viewBox="0 0 512 512" width="512" xmlns="http://www.w3.org/2000/svg"><g><path d="m321.902 202.195c.144-.129.292-.252.428-.39 1.878-1.89 2.924-4.45 2.906-7.113l-.481-73.688c-.036-5.497-4.503-9.935-10-9.935h-48.515v-101.069c0-5.522-4.478-10-10-10s-10 4.478-10 10v101.069h-48.995c-2.663 0-5.217 1.063-7.094 2.952-1.878 1.89-2.924 4.449-2.906 7.113l.48 73.688c.018 2.755 1.15 5.243 2.966 7.041-39.989 22.567-67.013 65.177-67.013 113.924 0 72.306 59.359 131.131 132.321 131.131s132.321-58.825 132.321-131.131c.001-48.506-26.754-90.94-66.418-113.592zm-114.242-17.438-.35-53.688h97.51l.351 53.688zm48.34 242.161c-61.935 0-112.321-49.854-112.321-111.131 0-61.223 50.387-111.03 112.321-111.03s112.321 49.808 112.321 111.03c0 61.277-50.386 111.131-112.321 111.131z"/><path d="m256 472.534c-5.522 0-10 4.478-10 10v19.466c0 5.522 4.478 10 10 10s10-4.478 10-10v-19.466c0-5.522-4.478-10-10-10z"/><path d="m79.19 297.446h-19.657c-5.522 0-10 4.478-10 10s4.478 10 10 10h19.657c5.522 0 10-4.478 10-10s-4.477-10-10-10z"/><path d="m452.467 297.446h-19.657c-5.522 0-10 4.478-10 10s4.478 10 10 10h19.657c5.522 0 10-4.478 10-10s-4.478-10-10-10z"/><path d="m123.94 424.146-13.899 13.765c-3.925 3.886-3.955 10.218-.069 14.142 1.956 1.976 4.53 2.964 7.105 2.964 2.543 0 5.087-.964 7.036-2.895l13.899-13.765c3.925-3.886 3.955-10.218.069-14.142-3.886-3.925-10.217-3.954-14.141-.069z"/><path d="m388.06 424.146c-3.923-3.886-10.256-3.854-14.142.069s-3.855 10.256.069 14.142l13.899 13.765c1.949 1.931 4.493 2.895 7.036 2.895 2.575 0 5.15-.989 7.105-2.964 3.886-3.924 3.855-10.256-.069-14.142z"/></g></svg>